<?xml version="1.0" encoding="utf-8"?>
<svg version="1.1" id="Layer_1"
xmlns="http://www.w3.org/2000/svg"
xmlns:xlink="http://www.w3.org/1999/xlink"
width="800px" height="175px"
xml:space="preserve">
<g id="PathID_1" transform="matrix(4.31008, 0, 0, 4.31008, 165.5, 164.85)" opacity="1">
<path style="fill:#002F85;fill-opacity:1" d="M27.15 -27.8L27.15 0L24.8 0L24.8 -7.25Q23.8 -3.4 20.9 -1.4Q18 0.6 14.2 0.6Q9.35 0.6 6.25 -2.45Q3.2 -5.55 3.2 -11.6L3.2 -27.8L5.45 -27.8L5.45 -11.65Q5.45 -6.7 7.95 -4.05Q10.45 -1.4 14.8 -1.4Q19.4 -1.4 22.1 -4.35Q24.8 -7.3 24.8 -13.05L24.8 -27.8L27.15 -27.8" />
</g>
<g id="PathID_2" transform="matrix(4.31008, 0, 0, 4.31008, 165.5, 164.85)" opacity="1">
</g>
<g id="PathID_3" transform="matrix(4.31008, 0, 0, 4.31008, 300.35, 164.85)" opacity="1">
<path style="fill:#002F85;fill-opacity:1" d="M7.65 -25.7L7.65 -7.8Q7.65 -4.5 8.8 -3.25Q10 -2.05 13 -2.05L15.9 -2.05L15.9 0L12.7 0Q8.9 0 7.1 -1.75Q5.35 -3.55 5.35 -7.8L5.35 -25.7L0.95 -25.7L0.95 -27.8L5.35 -27.8L5.35 -34.85L7.65 -34.85L7.65 -27.8L15.9 -27.8L15.9 -25.7L7.65 -25.7" />
</g>
<g id="PathID_4" transform="matrix(4.31008, 0, 0, 4.31008, 300.35, 164.85)" opacity="1">
</g>
<g id="PathID_5" transform="matrix(4.31008, 0, 0, 4.31008, 377.45, 164.85)" opacity="1">
<path style="fill:#002F85;fill-opacity:1" d="M16.5 -28.15Q20.45 -28.15 23.55 -26.4Q26.7 -24.7 28.45 -21.45Q30.25 -18.25 30.25 -13.9Q30.25 -9.5 28.45 -6.25Q26.7 -3.05 23.55 -1.3Q20.45 0.4 16.5 0.4Q12.6 0.4 9.5 -1.3Q6.4 -3.05 4.6 -6.3Q2.8 -9.55 2.8 -13.9Q2.8 -18.25 4.6 -21.45Q6.4 -24.7 9.5 -26.4Q12.6 -28.15 16.5 -28.15M16.5 -26.1Q13.5 -26.1 10.9 -24.75Q8.3 -23.4 6.7 -20.65Q5.15 -17.95 5.15 -13.9Q5.15 -9.85 6.7 -7.1Q8.3 -4.35 10.9 -3Q13.5 -1.65 16.5 -1.65Q19.55 -1.65 22.1 -3Q24.7 -4.35 26.3 -7.1Q27.9 -9.85 27.9 -13.9Q27.9 -17.95 26.3 -20.65Q24.75 -23.4 22.15 -24.75Q19.6 -26.1 16.5 -26.1" />
</g>
<g id="PathID_6" transform="matrix(4.31008, 0, 0, 4.31008, 377.45, 164.85)" opacity="1">
</g>
<g id="PathID_7" transform="matrix(4.31008, 0, 0, 4.31008, 519.95, 164.85)" opacity="1">
<path style="fill:#002F85;fill-opacity:1" d="M6.45 -21.65Q7.5 -24.9 10.2 -26.6Q12.95 -28.35 17.15 -28.35L17.15 -25.85L16.35 -25.85Q12.15 -25.85 9.3 -23.45Q6.45 -21.1 6.45 -15.85L6.45 0L4.1 0L4.1 -27.8L6.45 -27.8L6.45 -21.65" />
</g>
<g id="PathID_8" transform="matrix(4.31008, 0, 0, 4.31008, 519.95, 164.85)" opacity="1">
</g>
<g id="PathID_9" transform="matrix(4.29145, 0, 0, 4.29145, 599.3, 165.55)" opacity="1">
<path style="fill:#3164C2;fill-opacity:1" d="M16.05 -28.15Q20.6 -28.15 23.7 -25.75Q26.85 -23.35 28 -19.5L28 -27.8L30.3 -27.8L30.3 0L28 0L28 -8.25Q26.85 -4.4 23.7 -2Q20.6 0.4 16.05 0.4Q12.15 0.4 9.15 -1.3Q6.15 -3.05 4.45 -6.3Q2.8 -9.55 2.8 -13.9Q2.8 -18.25 4.45 -21.45Q6.15 -24.7 9.15 -26.4Q12.15 -28.15 16.05 -28.15M16.55 -26.1Q11.35 -26.1 8.25 -22.8Q5.15 -19.55 5.15 -13.9Q5.15 -8.2 8.2 -4.9Q11.3 -1.65 16.55 -1.65Q19.85 -1.65 22.45 -3.15Q25.05 -4.7 26.5 -7.45Q28 -10.25 28 -13.9Q28 -17.55 26.5 -20.3Q25.05 -23.05 22.45 -24.55Q19.85 -26.1 16.55 -26.1" />
</g>
<g id="PathID_10" transform="matrix(4.29145, 0, 0, 4.29145, 599.3, 165.55)" opacity="1">
</g>
<g id="PathID_11" transform="matrix(4.29145, 0, 0, 4.29145, 752.95, 165.55)" opacity="1">
<path style="fill:#3164C2;fill-opacity:1" d="M3.3 -36.15Q3.3 -37 3.85 -37.5Q4.4 -38.05 5.25 -38.05Q6.1 -38.05 6.65 -37.5Q7.25 -37 7.25 -36.15Q7.25 -35.3 6.65 -34.75Q6.1 -34.25 5.25 -34.25Q4.4 -34.25 3.85 -34.75Q3.3 -35.3 3.3 -36.15M6.45 -27.8L6.45 0L4.1 0L4.1 -27.8L6.45 -27.8" />
</g>
<g id="PathID_12" transform="matrix(4.29145, 0, 0, 4.29145, 752.95, 165.55)" opacity="1">
</g>
<g id="PathID_13" transform="matrix(1.34679, 0, 0, 1.34679, 7.4, 30.95)" opacity="1">
<path style="fill:#4A7EBC;fill-opacity:1" d="M95.65 76.3L104.65 99.75Q105.05 100.6 104.35 101.35Q103.85 101.75 103.25 101.75L102.75 101.65L79.95 93Q67 101.75 51.25 101.75Q30.05 101.75 15.05 86.85Q0 71.95 0 50.9Q0 29.85 15.05 14.95Q30.05 0 51.25 0Q72.45 0 87.45 14.95Q102.5 29.85 102.5 50.9Q102.5 64.6 95.65 76.3M92.6 76.7Q92.3 76.05 92.7 75.4Q99.5 64.1 99.5 50.9Q99.5 31.1 85.35 17.05Q71.2 3 51.25 3Q31.3 3 17.15 17.05Q3 31.1 3 50.9Q3 70.7 17.15 84.75Q31.3 98.75 51.25 98.75Q66.6 98.75 78.9 90.1Q79.6 89.65 80.3 89.95L100.65 97.65L92.6 76.7" />
</g>
<g id="PathID_14" transform="matrix(1.34679, 0, 0, 1.34679, 7.4, 30.95)" opacity="1">
</g>
<g id="PathID_15" transform="matrix(0.0959686, 0, 0, 0.0959686, 106.25, 103.65)" opacity="1">
<path style="fill:#002F85;fill-opacity:1" d="M36 -36.1Q51 -21.1 51 0Q51 21.1 36 36Q21.1 51 0 51Q-21.1 51 -36.1 36Q-51 21.1 -51 0Q-51 -21.1 -36.1 -36.1Q-21.1 -51 0 -51Q21.1 -51 36 -36.1" />
</g>
<g id="PathID_16" transform="matrix(0.0959686, 0, 0, 0.0959686, 106.25, 103.65)" opacity="1">
</g>
<g id="PathID_17" transform="matrix(0.0959686, 0, 0, 0.0959686, 74.5, 103)" opacity="1">
<path style="fill:#002F85;fill-opacity:1" d="M36 -36.1Q51 -21.1 51 0Q51 21.1 36 36Q21.1 51 0 51Q-21.1 51 -36.1 36Q-51 21.1 -51 0Q-51 -21.1 -36.1 -36.1Q-21.1 -51 0 -51Q21.1 -51 36 -36.1" />
</g>
<g id="PathID_18" transform="matrix(0.0959686, 0, 0, 0.0959686, 74.5, 103)" opacity="1">
</g>
<g id="PathID_19" transform="matrix(0.0959686, 0, 0, 0.0959686, 45.45, 102.45)" opacity="1">
<path style="fill:#002F85;fill-opacity:1" d="M36 -36.1Q51 -21.1 51 0Q51 21.1 36 36Q21.1 51 0 51Q-21.1 51 -36.1 36Q-51 21.1 -51 0Q-51 -21.1 -36.1 -36.1Q-21.1 -51 0 -51Q21.1 -51 36 -36.1" />
</g>
<g id="PathID_20" transform="matrix(0.0959686, 0, 0, 0.0959686, 45.45, 102.45)" opacity="1">
</g>
<g id="PathID_21" transform="matrix(-0.444997, 0.16597, 0.165971, 0.444997, 116.8, 30.5)" opacity="1">
</g>
<g id="PathID_22" transform="matrix(-0.444997, 0.16597, 0.165971, 0.444997, 116.8, 30.5)" opacity="1">
<path style="fill:none;stroke-width:4.95;stroke-linecap:round;stroke-linejoin:round;stroke-miterlimit:3;stroke:#577DC2;stroke-opacity:1" d="M18.95 20.85L-18.95 -21" />
</g>
<g id="PathID_23" transform="matrix(0.444997, 0.16597, -0.165971, 0.444997, 34.4, 30.5)" opacity="1">
</g>
<g id="PathID_24" transform="matrix(0.444997, 0.16597, -0.165971, 0.444997, 34.4, 30.5)" opacity="1">
<path style="fill:none;stroke-width:4.95;stroke-linecap:round;stroke-linejoin:round;stroke-miterlimit:3;stroke:#577DC2;stroke-opacity:1" d="M18.9 20.9L-19.05 -20.95" />
</g>
<g id="PathID_25" transform="matrix(0.171629, 0, 0, 0.171629, 29.35, 16.95)" opacity="1">
<path style="fill:#002F85;fill-opacity:1" d="M36 -36.1Q51 -21.1 51 0Q51 21.1 36 36Q21.1 51 0 51Q-21.1 51 -36.1 36Q-51 21.1 -51 0Q-51 -21.1 -36.1 -36.1Q-21.1 -51 0 -51Q21.1 -51 36 -36.1" />
</g>
<g id="PathID_26" transform="matrix(0.171629, 0, 0, 0.171629, 29.35, 16.95)" opacity="1">
</g>
<g id="PathID_27" transform="matrix(0.171629, 0, 0, 0.171629, 122.7, 15.95)" opacity="1">
<path style="fill:#002F85;fill-opacity:1" d="M36 -36.1Q51 -21.1 51 0Q51 21.1 36 36Q21.1 51 0 51Q-21.1 51 -36.1 36Q-51 21.1 -51 0Q-51 -21.1 -36.1 -36.1Q-21.1 -51 0 -51Q21.1 -51 36 -36.1" />
</g>
<g id="PathID_28" transform="matrix(0.171629, 0, 0, 0.171629, 122.7, 15.95)" opacity="1">
</g>
</svg>
